ply
format ascii 1.0
element vertex 4
property float x
property float y
property float z
property float nx
property float ny
property float nz
property float red
property float green
property float blue
element face 4
property list uchar int vertex_index
end_header
1.000000 1.000000 1.000000 -0.301511 0.904534 -0.301511 1.000000 1.000000 1.000000
1.000000 -1.000000 -1.000000 0.301511 0.904534 -0.301511 1.000000 1.000000 1.000000
-1.000000 1.000000 -1.000000 0.301511 0.904534 0.301511 1.000000 1.000000 1.000000
-1.000000 -1.000000 1.000000 -0.301511 0.904534 0.301511 1.000000 1.000000 1.000000
3 0 1 2
3 0 1 3
3 0 2 3
3 1 2 3
